<?xml version="1.0" encoding="UTF-8"?>
<svg xmlns="http://www.w3.org/2000/svg" xmlns:xlink="http://www.w3.org/1999/xlink" viewBox="0 0 64 64" version="1.1">
<g id="surface1">
<path style=" fill:#FAEFDE;" d="M 16 53 L 49 53 C 50.105469 53 51 52.105469 51 51 L 51 7 C 51 5.894531 50.105469 5 49 5 L 16 5 C 14.894531 5 14 5.894531 14 7 L 14 51 C 14 52.105469 14.894531 53 16 53 Z "/>
<path style=" fill:#CDA1A7;" d="M 19 53 L 9 53 L 9 8 C 9 6.34375 10.34375 5 12 5 L 19 5 Z "/>
<path style=" fill:#EFD8BE;" d="M 47 59 L 11 59 C 9.894531 59 9 58.105469 9 57 L 9 55 C 9 53.894531 9.894531 53 11 53 L 47 53 C 48.105469 53 49 53.894531 49 55 L 49 57 C 49 58.105469 48.105469 59 47 59 Z "/>
<path style=" fill:#85CBF8;" d="M 54.445313 42.277344 L 51 44 L 51 31 L 54 31 C 54.550781 31 55 31.449219 55 32 L 55 41.382813 C 55 41.761719 54.785156 42.105469 54.445313 42.277344 Z "/>
<path style=" fill:#72CAAF;" d="M 54.445313 32.277344 L 51 34 L 51 21 L 54 21 C 54.550781 21 55 21.449219 55 22 L 55 31.382813 C 55 31.761719 54.785156 32.105469 54.445313 32.277344 Z "/>
<path style=" fill:#ED7899;" d="M 54.445313 22.277344 L 51 24 L 51 11 L 54 11 C 54.550781 11 55 11.449219 55 12 L 55 21.382813 C 55 21.761719 54.785156 22.105469 54.445313 22.277344 Z "/>
<path style=" fill:#8D6C9F;" d="M 19 8 C 18.445313 8 18 8.449219 18 9 L 18 13 C 18 13.550781 18.445313 14 19 14 C 19.554688 14 20 13.550781 20 13 L 20 9 C 20 8.449219 19.554688 8 19 8 Z "/>
<path style=" fill:#8D6C9F;" d="M 15 8 L 13 8 C 12.445313 8 12 8.449219 12 9 C 12 9.550781 12.445313 10 13 10 L 15 10 C 15.554688 10 16 9.550781 16 9 C 16 8.449219 15.554688 8 15 8 Z "/>
<path style=" fill:#8D6C9F;" d="M 15 13 L 13 13 C 12.445313 13 12 13.449219 12 14 C 12 14.550781 12.445313 15 13 15 L 15 15 C 15.554688 15 16 14.550781 16 14 C 16 13.449219 15.554688 13 15 13 Z "/>
<path style=" fill:#8D6C9F;" d="M 15 18 L 13 18 C 12.445313 18 12 18.449219 12 19 C 12 19.550781 12.445313 20 13 20 L 15 20 C 15.554688 20 16 19.550781 16 19 C 16 18.449219 15.554688 18 15 18 Z "/>
<path style=" fill:#8D6C9F;" d="M 15 23 L 13 23 C 12.445313 23 12 23.449219 12 24 C 12 24.550781 12.445313 25 13 25 L 15 25 C 15.554688 25 16 24.550781 16 24 C 16 23.449219 15.554688 23 15 23 Z "/>
<path style=" fill:#8D6C9F;" d="M 15 28 L 13 28 C 12.445313 28 12 28.449219 12 29 C 12 29.550781 12.445313 30 13 30 L 15 30 C 15.554688 30 16 29.550781 16 29 C 16 28.449219 15.554688 28 15 28 Z "/>
<path style=" fill:#8D6C9F;" d="M 15 33 L 13 33 C 12.445313 33 12 33.449219 12 34 C 12 34.550781 12.445313 35 13 35 L 15 35 C 15.554688 35 16 34.550781 16 34 C 16 33.449219 15.554688 33 15 33 Z "/>
<path style=" fill:#8D6C9F;" d="M 15 38 L 13 38 C 12.445313 38 12 38.449219 12 39 C 12 39.550781 12.445313 40 13 40 L 15 40 C 15.554688 40 16 39.550781 16 39 C 16 38.449219 15.554688 38 15 38 Z "/>
<path style=" fill:#8D6C9F;" d="M 15 43 L 13 43 C 12.445313 43 12 43.449219 12 44 C 12 44.550781 12.445313 45 13 45 L 15 45 C 15.554688 45 16 44.550781 16 44 C 16 43.449219 15.554688 43 15 43 Z "/>
<path style=" fill:#8D6C9F;" d="M 15 48 L 13 48 C 12.445313 48 12 48.449219 12 49 C 12 49.550781 12.445313 50 13 50 L 15 50 C 15.554688 50 16 49.550781 16 49 C 16 48.449219 15.554688 48 15 48 Z "/>
<path style=" fill:#8D6C9F;" d="M 56 12 C 56 10.898438 55.101563 10 54 10 L 52 10 L 52 7 C 52 5.347656 50.652344 4 49 4 L 12 4 C 9.792969 4 8 5.792969 8 8 L 8 56 C 8 58.207031 9.792969 60 12 60 L 47 60 C 48.652344 60 50 58.652344 50 57 L 50 53.816406 C 51.160156 53.402344 52 52.300781 52 51 L 52 44.617188 L 54.890625 43.171875 C 55.578125 42.828125 56 42.140625 56 41.378906 L 56 32 C 56 31.890625 55.988281 31.789063 55.96875 31.691406 C 55.988281 31.589844 56 31.488281 56 31.378906 L 56 22 C 56 21.890625 55.988281 21.789063 55.96875 21.691406 C 55.988281 21.589844 56 21.488281 56 21.378906 Z M 54 31.378906 L 52.761719 32 L 52 32.378906 L 52 24.621094 L 54 23.621094 Z M 54 12 L 54 21.378906 L 52.761719 22 L 52 22.378906 L 52 12 Z M 47 58 L 12 58 C 10.898438 58 10 57.101563 10 56 C 10 54.753906 11.390625 54 12 54 L 48 54 L 48 57 C 48 57.550781 47.550781 58 47 58 Z M 50 51 C 50 51.550781 49.550781 52 49 52 L 20 52 L 20 17 C 20 16.449219 19.554688 16 19 16 C 18.445313 16 18 16.449219 18 17 L 18 52 L 12 52 C 11.382813 52 10.660156 52.222656 10 52.632813 L 10 8 C 10 6.898438 10.898438 6 12 6 L 49 6 C 49.550781 6 50 6.449219 50 7 Z M 54 41.378906 L 52 42.378906 L 52 34.621094 L 54 33.621094 Z "/>
<path style=" fill:#8D6C9F;" d="M 36 18 L 34 18 C 29.589844 18 26 21.589844 26 26 L 26 32 C 26 36.410156 29.589844 40 34 40 L 41 40 C 41.554688 40 42 39.550781 42 39 C 42 38.449219 41.554688 38 41 38 L 34 38 C 30.691406 38 28 35.308594 28 32 L 28 26 C 28 22.691406 30.691406 20 34 20 L 36 20 C 39.308594 20 42 22.691406 42 26 L 42 33 C 42 33.550781 41.550781 34 41 34 C 40.449219 34 40 33.550781 40 33 L 40 27 C 40 24.242188 37.757813 22 35 22 C 32.242188 22 30 24.242188 30 27 L 30 31 C 30 33.757813 32.242188 36 35 36 C 36.347656 36 37.566406 35.460938 38.464844 34.589844 C 38.996094 35.433594 39.929688 36 41 36 C 42.652344 36 44 34.652344 44 33 L 44 26 C 44 21.589844 40.410156 18 36 18 Z M 35 34 C 33.347656 34 32 32.652344 32 31 L 32 27 C 32 25.347656 33.347656 24 35 24 C 36.652344 24 38 25.347656 38 27 L 38 31 C 38 32.652344 36.652344 34 35 34 Z "/>
</g>
</svg>