<?xml version="1.0" encoding="UTF-8"?>
<svg xmlns="http://www.w3.org/2000/svg" xmlns:xlink="http://www.w3.org/1999/xlink" viewBox="0 0 64 64" version="1.1">
<g id="surface1">
<path style=" fill:#FAEFDE;" d="M 35.441406 27.28125 C 35.21875 27.28125 34.53125 26.710938 34.171875 25.351563 C 33.808594 23.988281 34.171875 23.070313 34.300781 23.03125 C 34.300781 23.03125 35.621094 22.800781 35.640625 22.539063 C 35.660156 22.15625 35.703125 21.777344 35.769531 21.398438 C 35.808594 20.996094 35.789063 20.589844 35.710938 20.191406 C 35.527344 18.933594 35.496094 17.664063 35.621094 16.398438 C 35.851563 14.050781 37.230469 12.648438 39.320313 12.648438 C 39.480469 12.648438 39.632813 12.597656 39.761719 12.5 C 41.171875 11.628906 42.800781 11.171875 44.460938 11.179688 L 45.199219 11.179688 C 49.671875 11.179688 52.890625 13.460938 54.199219 17.488281 C 53.691406 17.429688 53.859375 17.789063 53.5 18.140625 C 53.140625 18.488281 52.261719 18.628906 52.589844 19.539063 C 52.980469 20.496094 53.207031 21.507813 53.25 22.539063 C 53.25 22.800781 54.570313 22.339844 54.578125 22.339844 C 54.953125 23.296875 55.003906 24.351563 54.71875 25.339844 C 54.359375 26.699219 53.660156 27.269531 53.449219 27.269531 C 53.125 27.277344 52.839844 27.488281 52.738281 27.800781 C 52.117188 29.914063 51.042969 31.863281 49.589844 33.519531 C 52.671875 35.25 43.761719 37.121094 43.339844 37.121094 C 39.53125 37.121094 37.390625 31.96875 36.148438 27.800781 C 36.054688 27.488281 35.765625 27.277344 35.441406 27.28125 Z "/>
<path style=" fill:#CDA1A7;" d="M 36.359375 19.398438 C 38.289063 19.269531 39.957031 18 40.589844 16.171875 C 42.53125 16.820313 43.171875 18.75 52.21875 18.109375 C 53.121094 18.050781 53.21875 18.359375 53.511719 18.109375 C 53.800781 17.859375 53.039063 16.808594 53.511719 16.859375 C 52.417969 13.207031 48.957031 10.78125 45.148438 11 L 44.46875 11 C 42.929688 10.996094 41.421875 11.421875 40.109375 12.230469 C 39.992188 12.320313 39.847656 12.371094 39.699219 12.371094 C 37.769531 12.371094 36.488281 13.671875 36.269531 15.851563 C 36.15625 17.023438 36.1875 18.203125 36.359375 19.371094 Z "/>
<path style=" fill:#FAEFDE;" d="M 11.441406 27.28125 C 11.21875 27.28125 10.53125 26.710938 10.171875 25.351563 C 9.808594 23.988281 10.171875 23.070313 10.300781 23.03125 C 10.300781 23.03125 11.621094 22.800781 11.640625 22.539063 C 11.660156 22.15625 11.703125 21.777344 11.769531 21.398438 C 11.808594 20.996094 11.789063 20.589844 11.710938 20.191406 C 11.527344 18.933594 11.496094 17.664063 11.621094 16.398438 C 11.851563 14.050781 13.230469 12.648438 15.320313 12.648438 C 15.480469 12.648438 15.632813 12.597656 15.761719 12.5 C 17.171875 11.628906 18.800781 11.171875 20.460938 11.179688 L 21.199219 11.179688 C 25.671875 11.179688 28.890625 13.460938 30.199219 17.488281 C 29.691406 17.429688 29.859375 17.789063 29.5 18.140625 C 29.140625 18.488281 28.261719 18.628906 28.589844 19.539063 C 28.980469 20.496094 29.207031 21.507813 29.25 22.539063 C 29.25 22.800781 30.570313 22.339844 30.578125 22.339844 C 30.953125 23.296875 31.003906 24.351563 30.71875 25.339844 C 30.359375 26.699219 29.660156 27.269531 29.449219 27.269531 C 29.125 27.277344 28.839844 27.488281 28.738281 27.800781 C 28.117188 29.914063 27.042969 31.863281 25.589844 33.519531 C 28.671875 35.25 19.761719 37.121094 19.339844 37.121094 C 15.53125 37.121094 13.390625 31.96875 12.148438 27.800781 C 12.054688 27.488281 11.765625 27.277344 11.441406 27.28125 Z "/>
<path style=" fill:#72CAAF;" d="M 48 47.148438 L 48 49.539063 C 48 50.578125 47.160156 51.421875 46.121094 51.421875 L 3 51.421875 C 1.894531 51.421875 1 50.523438 1 49.421875 L 1 47.148438 C 0.996094 43.523438 2.894531 40.164063 6 38.289063 L 15.449219 32.601563 C 17.839844 35.601563 21 37.769531 24.5 37.769531 C 28 37.769531 31.160156 35.621094 33.550781 32.601563 L 43 38.289063 C 46.105469 40.164063 48.003906 43.523438 48 47.148438 Z "/>
<path style=" fill:#ED7899;" d="M 63 47.148438 L 63 49.539063 C 63 50.578125 62.160156 51.421875 61.121094 51.421875 L 18 51.421875 C 16.894531 51.421875 16 50.523438 16 49.421875 L 16 47.148438 C 15.996094 43.523438 17.894531 40.164063 21 38.289063 L 30.449219 32.601563 C 32.839844 35.601563 36 37.769531 39.5 37.769531 C 43 37.769531 46.160156 35.621094 48.550781 32.601563 L 58 38.289063 C 61.105469 40.164063 63.003906 43.523438 63 47.148438 Z "/>
<path style=" fill:#DD6489;" d="M 59 46 L 21 46 C 18.789063 46 17 47.789063 17 50 C 17 50.550781 17.449219 51 18 51 L 62 51 C 62.550781 51 63 50.550781 63 50 C 63 47.789063 61.210938 46 59 46 Z "/>
<path style=" fill:#61BC9E;" d="M 43 46 L 5 46 C 2.789063 46 1 47.789063 1 50 C 1 50.550781 1.449219 51 2 51 L 46 51 C 46.550781 51 47 50.550781 47 50 C 47 47.789063 45.210938 46 43 46 Z "/>
<path style=" fill:#CDA1A7;" d="M 12.359375 19.398438 C 14.289063 19.269531 15.957031 18 16.589844 16.171875 C 18.53125 16.820313 19.171875 18.75 28.21875 18.109375 C 29.121094 18.050781 29.21875 18.359375 29.511719 18.109375 C 29.800781 17.859375 29.039063 16.808594 29.511719 16.859375 C 28.417969 13.207031 24.957031 10.78125 21.148438 11 L 20.46875 11 C 18.929688 10.996094 17.421875 11.421875 16.109375 12.230469 C 15.992188 12.320313 15.847656 12.371094 15.699219 12.371094 C 13.769531 12.371094 12.488281 13.671875 12.269531 15.851563 C 12.15625 17.023438 12.1875 18.203125 12.359375 19.371094 Z "/>
<path style=" fill:#C2CDE7;" d="M 55 48.441406 L 55 56.441406 L 9 56.441406 L 9 48.441406 C 9 44.890625 10.859375 41.601563 13.898438 39.769531 L 23.140625 34.199219 C 25.480469 37.199219 28.570313 39.261719 32 39.261719 C 35.429688 39.261719 38.519531 37.148438 40.859375 34.199219 L 50.101563 39.769531 C 53.140625 41.601563 55 44.890625 55 48.441406 Z "/>
<path style=" fill:#D6DFF2;" d="M 41.449219 39.351563 L 32 44.070313 L 22.550781 39.339844 C 21.757813 38.945313 21.203125 38.191406 21.058594 37.3125 C 20.914063 36.4375 21.203125 35.546875 21.828125 34.921875 L 21.878906 34.871094 L 42.121094 34.871094 L 42.171875 34.921875 C 42.800781 35.546875 43.089844 36.441406 42.949219 37.320313 C 42.804688 38.199219 42.246094 38.953125 41.449219 39.351563 Z "/>
<path style=" fill:#FAEFDE;" d="M 20.789063 27 C 20.519531 27 19.660156 26.289063 19.199219 24.601563 C 18.738281 22.910156 19.199219 21.769531 19.371094 21.710938 C 19.371094 21.710938 21.019531 21.421875 21.03125 21.089844 C 21.054688 20.617188 21.105469 20.144531 21.191406 19.679688 C 21.238281 19.179688 21.214844 18.675781 21.121094 18.179688 C 20.890625 16.628906 20.851563 15.058594 21 13.5 C 21.289063 10.578125 23 8.828125 25.601563 8.828125 C 25.796875 8.832031 25.992188 8.769531 26.148438 8.648438 C 27.90625 7.566406 29.933594 6.992188 32 7 L 32.921875 7 C 38.480469 7 42.5 9.839844 44.140625 14.859375 C 43.511719 14.789063 43.71875 15.230469 43.269531 15.660156 C 42.820313 16.089844 41.71875 16.269531 42.140625 17.398438 C 42.640625 18.585938 42.933594 19.851563 43 21.140625 C 43 21.46875 44.640625 20.890625 44.660156 20.890625 C 45.128906 22.089844 45.191406 23.414063 44.828125 24.648438 C 44.378906 26.339844 43.511719 27.050781 43.238281 27.050781 C 42.835938 27.058594 42.480469 27.324219 42.359375 27.710938 C 40.78125 32.890625 36.738281 38.140625 32 38.140625 C 27.261719 38.140625 23.21875 32.890625 21.671875 27.699219 C 21.570313 27.292969 21.207031 27.007813 20.789063 27 Z "/>
<path style=" fill:#CDA1A7;" d="M 21.128906 18.269531 C 23.71875 18.09375 25.949219 16.390625 26.800781 13.941406 C 29.398438 14.808594 30.269531 17.410156 42.398438 16.539063 C 43.601563 16.449219 43.78125 16.878906 44.128906 16.539063 C 44.480469 16.199219 43.5 14.800781 44.128906 14.871094 C 42.488281 9.839844 38.480469 7 32.921875 7 L 32 7 C 29.933594 6.992188 27.90625 7.566406 26.148438 8.648438 C 25.992188 8.769531 25.796875 8.832031 25.601563 8.828125 C 23 8.828125 21.300781 10.578125 21 13.5 C 20.847656 15.074219 20.886719 16.65625 21.121094 18.21875 Z "/>
<path style=" fill:#ACB7D0;" d="M 51 52 L 13 52 C 10.789063 52 9 53.789063 9 56 C 9 56.550781 9.449219 57 10 57 L 54 57 C 54.550781 57 55 56.550781 55 56 C 55 53.789063 53.210938 52 51 52 Z "/>
<path style=" fill:#8D6C9F;" d="M 24.53125 17.25 C 24.984375 17.5625 25.605469 17.453125 25.921875 17 L 27.21875 15 L 28.441406 15.601563 C 30.910156 16.800781 33.621094 17.425781 36.371094 17.429688 L 38.558594 17.429688 C 39.113281 17.429688 39.558594 16.980469 39.558594 16.429688 C 39.558594 15.878906 39.113281 15.429688 38.558594 15.429688 L 36.378906 15.429688 C 33.933594 15.425781 31.519531 14.867188 29.320313 13.800781 L 28 13.128906 C 27.160156 12.726563 26.152344 13.003906 25.640625 13.78125 L 24.269531 15.859375 C 23.957031 16.316406 24.074219 16.9375 24.53125 17.25 Z "/>
<path style=" fill:#8D6C9F;" d="M 39.550781 39.109375 L 32 42.878906 L 24.449219 39.101563 C 23.960938 38.875 23.378906 39.078125 23.136719 39.5625 C 22.898438 40.046875 23.082031 40.632813 23.558594 40.890625 L 31.558594 44.890625 C 31.839844 45.027344 32.167969 45.027344 32.449219 44.890625 L 40.449219 40.890625 C 40.78125 40.738281 41.003906 40.417969 41.03125 40.054688 C 41.054688 39.691406 40.882813 39.339844 40.578125 39.140625 C 40.269531 38.945313 39.882813 38.925781 39.558594 39.101563 Z "/>
<path style=" fill:#8D6C9F;" d="M 47 50 C 46.449219 50 46 50.449219 46 51 L 46 53 C 46 53.550781 46.449219 54 47 54 C 47.550781 54 48 53.550781 48 53 L 48 51 C 48 50.449219 47.550781 50 47 50 Z "/>
<path style=" fill:#8D6C9F;" d="M 52 54 C 52.550781 54 53 53.550781 53 53 L 53 51 C 53 50.449219 52.550781 50 52 50 C 51.449219 50 51 50.449219 51 51 L 51 53 C 51 53.550781 51.449219 54 52 54 Z "/>
<path style=" fill:#8D6C9F;" d="M 42 50 C 41.449219 50 41 50.449219 41 51 L 41 53 C 41 53.550781 41.449219 54 42 54 C 42.550781 54 43 53.550781 43 53 L 43 51 C 43 50.449219 42.550781 50 42 50 Z "/>
<path style=" fill:#8D6C9F;" d="M 37 50 C 36.449219 50 36 50.449219 36 51 L 36 53 C 36 53.550781 36.449219 54 37 54 C 37.550781 54 38 53.550781 38 53 L 38 51 C 38 50.449219 37.550781 50 37 50 Z "/>
<path style=" fill:#8D6C9F;" d="M 32 50 C 31.449219 50 31 50.449219 31 51 L 31 53 C 31 53.550781 31.449219 54 32 54 C 32.550781 54 33 53.550781 33 53 L 33 51 C 33 50.449219 32.550781 50 32 50 Z "/>
<path style=" fill:#8D6C9F;" d="M 27 50 C 26.449219 50 26 50.449219 26 51 L 26 53 C 26 53.550781 26.449219 54 27 54 C 27.550781 54 28 53.550781 28 53 L 28 51 C 28 50.449219 27.550781 50 27 50 Z "/>
<path style=" fill:#8D6C9F;" d="M 22 50 C 21.449219 50 21 50.449219 21 51 L 21 53 C 21 53.550781 21.449219 54 22 54 C 22.550781 54 23 53.550781 23 53 L 23 51 C 23 50.449219 22.550781 50 22 50 Z "/>
<path style=" fill:#8D6C9F;" d="M 17 50 C 16.449219 50 16 50.449219 16 51 L 16 53 C 16 53.550781 16.449219 54 17 54 C 17.550781 54 18 53.550781 18 53 L 18 51 C 18 50.449219 17.550781 50 17 50 Z "/>
<path style=" fill:#8D6C9F;" d="M 12 50 C 11.449219 50 11 50.449219 11 51 L 11 53 C 11 53.550781 11.449219 54 12 54 C 12.550781 54 13 53.550781 13 53 L 13 51 C 13 50.449219 12.550781 50 12 50 Z "/>
<path style=" fill:#8D6C9F;" d="M 59.339844 37.558594 L 51.078125 32.210938 C 52.113281 30.859375 52.914063 29.351563 53.460938 27.738281 C 54.5 27.132813 55.226563 26.109375 55.460938 24.929688 C 56.011719 22.871094 55.460938 21.128906 54.148438 20.78125 L 54.070313 20.78125 C 53.976563 20.230469 53.835938 19.6875 53.648438 19.160156 L 53.929688 19.261719 C 54.273438 19.402344 54.671875 19.34375 54.957031 19.101563 C 55.242188 18.863281 55.371094 18.484375 55.289063 18.121094 C 54.445313 13.246094 50.101563 9.765625 45.160156 10 L 44.488281 10 C 43.863281 10.011719 43.242188 10.078125 42.628906 10.199219 C 40.164063 7.414063 36.578125 5.871094 32.859375 6 L 32 6 C 29.785156 6.015625 27.613281 6.605469 25.699219 7.71875 C 23.964844 7.773438 22.351563 8.613281 21.308594 10 L 20.488281 10 C 18.734375 10.003906 17.011719 10.464844 15.488281 11.339844 C 12.910156 11.480469 11.089844 13.339844 10.800781 16.238281 C 10.683594 17.492188 10.71875 18.753906 10.898438 20 C 10.898438 20.238281 10.96875 20.53125 10.960938 20.589844 L 10.960938 20.730469 L 10.871094 20.730469 C 9.558594 21.078125 9.011719 22.828125 9.558594 24.878906 C 9.792969 26.058594 10.523438 27.082031 11.558594 27.691406 C 12.03125 29.113281 12.707031 30.457031 13.558594 31.691406 L 4.558594 37.5 C 1.683594 39.363281 -0.0390625 42.574219 0 46 L 0 49.210938 C 0.0117188 50.753906 1.265625 52 2.808594 52 L 8 52 L 8 55 C 8 56.65625 9.34375 58 11 58 L 53 58 C 54.65625 58 56 56.65625 56 55 L 56 52 L 61.109375 52 C 62.660156 52 63.921875 50.742188 63.921875 49.191406 L 63.921875 46 C 63.933594 42.589844 62.207031 39.410156 59.339844 37.558594 Z M 26 9.710938 C 26.214844 9.710938 26.425781 9.640625 26.601563 9.511719 C 28.226563 8.519531 30.09375 7.996094 32 8 L 32.859375 8 C 37.859375 8 41.578125 10.539063 43.140625 15 C 42.589844 14.9375 42.042969 15.101563 41.621094 15.460938 C 41.082031 16.03125 40.96875 16.886719 41.339844 17.578125 C 41.789063 18.675781 42.046875 19.839844 42.101563 21.019531 C 42.117188 21.375 42.324219 21.695313 42.640625 21.859375 C 42.960938 22.023438 43.339844 22.003906 43.640625 21.808594 L 43.75 21.75 C 44.085938 22.546875 44.109375 23.441406 43.808594 24.25 C 43.421875 25.699219 42.691406 26.359375 42.46875 26.390625 C 42.011719 26.371094 41.597656 26.667969 41.46875 27.109375 C 40.078125 31.789063 36.269531 36.769531 31.960938 36.769531 C 27.648438 36.769531 23.839844 31.769531 22.449219 27.109375 C 22.320313 26.667969 21.910156 26.371094 21.449219 26.390625 C 21.21875 26.390625 20.449219 25.699219 20.101563 24.25 C 19.8125 23.433594 19.8125 22.546875 20.101563 21.730469 C 20.15625 21.746094 20.210938 21.773438 20.261719 21.808594 C 20.558594 22.003906 20.941406 22.023438 21.257813 21.859375 C 21.574219 21.695313 21.78125 21.375 21.800781 21.019531 C 21.820313 20.585938 21.867188 20.148438 21.941406 19.71875 C 22.023438 19.257813 22.042969 18.789063 22 18.320313 C 21.785156 16.875 21.75 15.40625 21.890625 13.949219 C 22.140625 11.289063 23.679688 9.710938 26 9.710938 Z M 2.808594 50 C 2.363281 50 2 49.636719 2 49.191406 L 2 46 C 1.996094 43.273438 3.378906 40.734375 5.671875 39.261719 L 14.851563 33.320313 L 15.128906 33.609375 C 15.527344 33.992188 16.160156 33.984375 16.546875 33.585938 C 16.929688 33.1875 16.917969 32.554688 16.519531 32.171875 C 15 30.632813 13.882813 28.738281 13.28125 26.660156 C 13.179688 26.242188 12.800781 25.945313 12.371094 25.949219 C 11.898438 25.574219 11.582031 25.035156 11.480469 24.441406 C 11.316406 23.925781 11.292969 23.378906 11.410156 22.851563 C 11.710938 22.984375 12.054688 22.964844 12.339844 22.796875 C 12.621094 22.625 12.800781 22.328125 12.820313 22 C 12.835938 21.664063 12.871094 21.332031 12.929688 21 C 12.972656 20.601563 12.953125 20.203125 12.878906 19.808594 C 12.714844 18.695313 12.691406 17.5625 12.800781 16.441406 C 13 14.441406 14.101563 13.328125 15.800781 13.328125 C 16.015625 13.328125 16.226563 13.261719 16.398438 13.128906 C 17.566406 12.417969 18.902344 12.027344 20.269531 12 C 20.074219 12.574219 19.945313 13.167969 19.878906 13.769531 C 19.726563 15.367188 19.765625 16.980469 20 18.570313 C 20.042969 18.851563 20.070313 19.136719 20.078125 19.421875 C 20.078125 19.539063 20.078125 19.671875 20.019531 19.789063 L 19.730469 19.839844 C 18.210938 20.25 17.589844 22.339844 18.261719 24.839844 C 18.53125 26.308594 19.445313 27.574219 20.75 28.300781 C 21.371094 30.164063 22.269531 31.929688 23.410156 33.53125 L 14.488281 38.691406 C 10.480469 41.007813 8.007813 45.289063 8 49.921875 L 8 50 Z M 54 55 C 54 55.550781 53.550781 56 53 56 L 11 56 C 10.449219 56 10 55.550781 10 55 L 10 49.921875 C 10 45.996094 12.09375 42.367188 15.488281 40.398438 L 24.679688 35.078125 C 26.484375 37.300781 29.144531 38.652344 32 38.808594 C 34.855469 38.652344 37.515625 37.300781 39.320313 35.078125 L 48.511719 40.398438 C 51.90625 42.367188 54 45.996094 54 49.921875 Z M 61.921875 49.191406 C 61.921875 49.636719 61.558594 50 61.109375 50 L 56 50 L 56 49.921875 C 56 45.28125 53.527344 40.992188 49.511719 38.671875 L 40.589844 33.5 C 41.730469 31.898438 42.628906 30.136719 43.25 28.269531 C 44.554688 27.546875 45.46875 26.277344 45.738281 24.808594 C 46.398438 22.328125 45.738281 20.238281 44.269531 19.808594 L 44 19.789063 C 43.855469 18.859375 43.609375 17.949219 43.269531 17.070313 C 43.582031 17.128906 43.886719 17.21875 44.179688 17.339844 C 44.523438 17.484375 44.921875 17.421875 45.207031 17.183594 C 45.492188 16.941406 45.621094 16.5625 45.539063 16.199219 C 45.230469 14.726563 44.6875 13.308594 43.941406 12 C 44.128906 12 44.320313 12 44.5 12 L 45.171875 12 C 48.554688 11.792969 51.679688 13.824219 52.871094 17 C 52.5 17.019531 52.144531 17.167969 51.871094 17.421875 C 51.386719 17.929688 51.28125 18.6875 51.601563 19.308594 C 51.945313 20.167969 52.132813 21.078125 52.160156 22 C 52.1875 22.359375 52.40625 22.675781 52.730469 22.828125 C 52.992188 22.949219 53.296875 22.949219 53.558594 22.828125 C 53.683594 23.359375 53.660156 23.910156 53.5 24.429688 C 53.386719 25.007813 53.09375 25.539063 52.660156 25.941406 C 52.199219 25.921875 51.789063 26.21875 51.660156 26.660156 C 50.992188 29.03125 49.640625 31.148438 47.769531 32.75 C 47.335938 33.09375 47.261719 33.722656 47.605469 34.15625 C 47.949219 34.589844 48.578125 34.664063 49.011719 34.320313 C 49.238281 34.140625 49.460938 33.949219 49.671875 33.738281 L 58.199219 39.261719 C 60.511719 40.722656 61.914063 43.265625 61.921875 46 Z "/>
</g>
</svg>