<?xml version="1.0" encoding="UTF-8"?>
<svg xmlns="http://www.w3.org/2000/svg" xmlns:xlink="http://www.w3.org/1999/xlink" viewBox="0 0 64 64" version="1.1">
<g id="surface1">
<path style=" fill:#FAEFDE;" d="M 59 9 L 3 9 C 1.894531 9 1 9.894531 1 11 L 1 53 C 1 54.105469 1.894531 55 3 55 L 13 55 L 13 53.21875 C 12.074219 52.390625 11.753906 51.074219 12.199219 49.914063 C 12.640625 48.75 13.757813 47.984375 15 47.984375 C 16.242188 47.984375 17.359375 48.75 17.800781 49.914063 C 18.246094 51.074219 17.925781 52.390625 17 53.21875 L 17 55 L 29 55 L 29 53.21875 C 28.074219 52.390625 27.753906 51.074219 28.199219 49.914063 C 28.640625 48.75 29.757813 47.984375 31 47.984375 C 32.242188 47.984375 33.359375 48.75 33.800781 49.914063 C 34.246094 51.074219 33.925781 52.390625 33 53.21875 L 33 55 L 45 55 L 45 53.21875 C 44.074219 52.390625 43.753906 51.074219 44.199219 49.914063 C 44.640625 48.75 45.757813 47.984375 47 47.984375 C 48.242188 47.984375 49.359375 48.75 49.800781 49.914063 C 50.246094 51.074219 49.925781 52.390625 49 53.21875 L 49 55 L 59 55 C 60.105469 55 61 54.105469 61 53 L 61 11 C 61 9.894531 60.105469 9 59 9 Z "/>
<path style=" fill:#FFF7F0;" d="M 1 9 L 61 9 L 61 14 L 1 14 Z "/>
<path style=" fill:#EFD8BE;" d="M 1 46 L 1 53 C 1 54.105469 1.894531 55 3 55 L 13 55 L 13 53.21875 C 12.210938 52.539063 11.832031 51.5 12 50.46875 C 12.144531 48.8125 13.609375 47.589844 15.265625 47.734375 C 16.921875 47.882813 18.144531 49.34375 18 51 C 17.996094 51.847656 17.632813 52.65625 17 53.21875 L 17 55 L 29 55 L 29 53.21875 C 28.210938 52.539063 27.832031 51.5 28 50.46875 C 28.144531 48.8125 29.609375 47.589844 31.265625 47.734375 C 32.921875 47.882813 34.144531 49.34375 34 51 C 33.996094 51.847656 33.632813 52.65625 33 53.21875 L 33 55 L 45 55 L 45 53.21875 C 44.210938 52.539063 43.832031 51.5 44 50.46875 C 44.144531 48.8125 45.609375 47.589844 47.265625 47.734375 C 48.921875 47.882813 50.144531 49.34375 50 51 C 49.996094 51.847656 49.632813 52.65625 49 53.21875 L 49 55 L 59 55 C 60.105469 55 61 54.105469 61 53 L 61 46 C 61 43.789063 59.210938 42 57 42 L 5 42 C 2.789063 42 1 43.789063 1 46 Z "/>
<path style=" fill:#72CAAF;" d="M 31 37.589844 C 30.109375 33.269531 25 30 19 30 C 13 30 8 33.28125 7.078125 37.609375 C 7.078125 37.730469 7.261719 37.960938 7.261719 37.960938 L 30.730469 37.960938 C 30.730469 37.960938 31 37.710938 31 37.589844 Z "/>
<path style=" fill:#F9E3AE;" d="M 19 17 C 22.09375 17 24.601563 19.507813 24.601563 22.601563 L 24.601563 26.398438 C 24.601563 29.492188 22.09375 32 19 32 C 15.90625 32 13.398438 29.492188 13.398438 26.398438 L 13.398438 22.601563 C 13.398438 19.507813 15.90625 17 19 17 Z "/>
<path style=" fill:#8D6C9F;" d="M 51 40 C 50.449219 40 50 40.449219 50 41 L 50 43 C 50 43.550781 50.449219 44 51 44 C 51.550781 44 52 43.550781 52 43 L 52 41 C 52 40.449219 51.550781 40 51 40 Z "/>
<path style=" fill:#8D6C9F;" d="M 56 40 C 55.449219 40 55 40.449219 55 41 L 55 43 C 55 43.550781 55.449219 44 56 44 C 56.550781 44 57 43.550781 57 43 L 57 41 C 57 40.449219 56.550781 40 56 40 Z "/>
<path style=" fill:#8D6C9F;" d="M 46 40 C 45.449219 40 45 40.449219 45 41 L 45 43 C 45 43.550781 45.449219 44 46 44 C 46.550781 44 47 43.550781 47 43 L 47 41 C 47 40.449219 46.550781 40 46 40 Z "/>
<path style=" fill:#8D6C9F;" d="M 41 40 C 40.449219 40 40 40.449219 40 41 L 40 43 C 40 43.550781 40.449219 44 41 44 C 41.550781 44 42 43.550781 42 43 L 42 41 C 42 40.449219 41.550781 40 41 40 Z "/>
<path style=" fill:#8D6C9F;" d="M 36 40 C 35.449219 40 35 40.449219 35 41 L 35 43 C 35 43.550781 35.449219 44 36 44 C 36.550781 44 37 43.550781 37 43 L 37 41 C 37 40.449219 36.550781 40 36 40 Z "/>
<path style=" fill:#8D6C9F;" d="M 31 40 C 30.449219 40 30 40.449219 30 41 L 30 43 C 30 43.550781 30.449219 44 31 44 C 31.550781 44 32 43.550781 32 43 L 32 41 C 32 40.449219 31.550781 40 31 40 Z "/>
<path style=" fill:#8D6C9F;" d="M 26 40 C 25.449219 40 25 40.449219 25 41 L 25 43 C 25 43.550781 25.449219 44 26 44 C 26.550781 44 27 43.550781 27 43 L 27 41 C 27 40.449219 26.550781 40 26 40 Z "/>
<path style=" fill:#8D6C9F;" d="M 21 40 C 20.449219 40 20 40.449219 20 41 L 20 43 C 20 43.550781 20.449219 44 21 44 C 21.550781 44 22 43.550781 22 43 L 22 41 C 22 40.449219 21.550781 40 21 40 Z "/>
<path style=" fill:#8D6C9F;" d="M 16 40 C 15.449219 40 15 40.449219 15 41 L 15 43 C 15 43.550781 15.449219 44 16 44 C 16.550781 44 17 43.550781 17 43 L 17 41 C 17 40.449219 16.550781 40 16 40 Z "/>
<path style=" fill:#8D6C9F;" d="M 6 40 C 5.449219 40 5 40.449219 5 41 L 5 43 C 5 43.550781 5.449219 44 6 44 C 6.550781 44 7 43.550781 7 43 L 7 41 C 7 40.449219 6.550781 40 6 40 Z "/>
<path style=" fill:#8D6C9F;" d="M 11 40 C 10.449219 40 10 40.449219 10 41 L 10 43 C 10 43.550781 10.449219 44 11 44 C 11.550781 44 12 43.550781 12 43 L 12 41 C 12 40.449219 11.550781 40 11 40 Z "/>
<path style=" fill:#8D6C9F;" d="M 59 8 L 3 8 C 1.34375 8 0 9.34375 0 11 L 0 53 C 0 54.65625 1.34375 56 3 56 L 13 56 C 13.550781 56 14 55.550781 14 55 L 14 53.21875 C 14 52.9375 13.878906 52.667969 13.671875 52.480469 C 13.246094 52.105469 13.003906 51.566406 13 51 C 13 49.894531 13.894531 49 15 49 C 16.105469 49 17 49.894531 17 51 C 16.996094 51.566406 16.753906 52.105469 16.328125 52.480469 C 16.121094 52.667969 16 52.9375 16 53.21875 L 16 55 C 16 55.550781 16.449219 56 17 56 L 29 56 C 29.550781 56 30 55.550781 30 55 L 30 53.21875 C 30 52.9375 29.878906 52.667969 29.671875 52.480469 C 29.246094 52.105469 29.003906 51.566406 29 51 C 29 49.894531 29.894531 49 31 49 C 32.105469 49 33 49.894531 33 51 C 32.996094 51.566406 32.753906 52.105469 32.328125 52.480469 C 32.121094 52.667969 32 52.9375 32 53.21875 L 32 55 C 32 55.550781 32.449219 56 33 56 L 45 56 C 45.550781 56 46 55.550781 46 55 L 46 53.21875 C 46 52.9375 45.878906 52.667969 45.671875 52.480469 C 45.246094 52.105469 45.003906 51.566406 45 51 C 45 49.894531 45.894531 49 47 49 C 48.105469 49 49 49.894531 49 51 C 48.996094 51.566406 48.753906 52.105469 48.328125 52.480469 C 48.121094 52.667969 48 52.9375 48 53.21875 L 48 55 C 48 55.550781 48.449219 56 49 56 L 59 56 C 60.65625 56 62 54.65625 62 53 L 62 11 C 62 9.34375 60.65625 8 59 8 Z M 60 53 C 60 53.550781 59.550781 54 59 54 L 50 54 L 50 53.628906 C 51.417969 52.023438 51.316406 49.582031 49.769531 48.097656 C 48.222656 46.613281 45.777344 46.613281 44.230469 48.097656 C 42.683594 49.582031 42.582031 52.023438 44 53.628906 L 44 54 L 34 54 L 34 53.628906 C 35.417969 52.023438 35.316406 49.582031 33.769531 48.097656 C 32.222656 46.613281 29.777344 46.613281 28.230469 48.097656 C 26.683594 49.582031 26.582031 52.023438 28 53.628906 L 28 54 L 18 54 L 18 53.628906 C 19.417969 52.023438 19.316406 49.582031 17.769531 48.097656 C 16.222656 46.613281 13.777344 46.613281 12.230469 48.097656 C 10.683594 49.582031 10.582031 52.023438 12 53.628906 L 12 54 L 3 54 C 2.449219 54 2 53.550781 2 53 L 2 11 C 2 10.449219 2.449219 10 3 10 L 59 10 C 59.550781 10 60 10.449219 60 11 Z "/>
<path style=" fill:#8D6C9F;" d="M 31 38 C 31.34375 38 31.660156 37.824219 31.84375 37.53125 C 32.027344 37.242188 32.046875 36.878906 31.898438 36.570313 C 30.433594 33.40625 27.777344 30.945313 24.511719 29.730469 C 25.453125 28.332031 25.972656 26.6875 26 25 L 26 23 C 26 19.132813 22.867188 16 19 16 C 15.132813 16 12 19.132813 12 23 L 12 25 C 12.03125 26.683594 12.546875 28.324219 13.488281 29.71875 C 10.21875 30.9375 7.5625 33.402344 6.101563 36.570313 C 5.914063 36.894531 5.925781 37.296875 6.132813 37.609375 C 6.335938 37.925781 6.699219 38.097656 7.070313 38.058594 C 7.441406 38.019531 7.761719 37.777344 7.898438 37.429688 C 9.242188 34.484375 11.796875 32.269531 14.898438 31.359375 C 16.015625 32.394531 17.476563 32.976563 19 33 C 20.519531 32.976563 21.976563 32.390625 23.089844 31.359375 C 26.195313 32.269531 28.75 34.484375 30.089844 37.429688 C 30.257813 37.78125 30.613281 38.003906 31 38 Z M 14 25 L 14 23 C 14 20.238281 16.238281 18 19 18 C 21.761719 18 24 20.238281 24 23 L 24 25 C 24 27.71875 21.769531 31 19 31 C 16.230469 31 14 27.71875 14 25 Z "/>
<path style=" fill:#8D6C9F;" d="M 35 22 L 45 22 C 45.550781 22 46 21.550781 46 21 C 46 20.449219 45.550781 20 45 20 L 35 20 C 34.449219 20 34 20.449219 34 21 C 34 21.550781 34.449219 22 35 22 Z "/>
<path style=" fill:#8D6C9F;" d="M 47 32 L 35 32 C 34.449219 32 34 32.449219 34 33 C 34 33.550781 34.449219 34 35 34 L 47 34 C 47.550781 34 48 33.550781 48 33 C 48 32.449219 47.550781 32 47 32 Z "/>
<path style=" fill:#8D6C9F;" d="M 53 20 L 49 20 C 48.449219 20 48 20.449219 48 21 C 48 21.550781 48.449219 22 49 22 L 53 22 C 53.550781 22 54 21.550781 54 21 C 54 20.449219 53.550781 20 53 20 Z "/>
<path style=" fill:#8D6C9F;" d="M 53 26 L 35 26 C 34.449219 26 34 26.449219 34 27 C 34 27.550781 34.449219 28 35 28 L 53 28 C 53.550781 28 54 27.550781 54 27 C 54 26.449219 53.550781 26 53 26 Z "/>
</g>
</svg>