<?xml version="1.0" encoding="UTF-8"?>
<svg xmlns="http://www.w3.org/2000/svg" xmlns:xlink="http://www.w3.org/1999/xlink" viewBox="0 0 64 64" version="1.1">
<g id="surface1">
<path style=" fill:#CDA1A7;" d="M 9 4.941406 L 55 4.941406 C 56.105469 4.941406 57 5.835938 57 6.941406 L 57 58.941406 C 57 60.042969 56.105469 60.941406 55 60.941406 L 9 60.941406 C 7.894531 60.941406 7 60.042969 7 58.941406 L 7 6.941406 C 7 5.835938 7.894531 4.941406 9 4.941406 Z "/>
<path style=" fill:#DEB4BA;" d="M 8 6.941406 C 8 6.386719 8.449219 5.941406 9 5.941406 L 55 5.941406 C 55.550781 5.941406 56 6.386719 56 6.941406 C 56 7.492188 55.550781 7.941406 55 7.941406 L 9 7.941406 C 8.449219 7.941406 8 7.492188 8 6.941406 Z "/>
<path style=" fill:#FAEFDE;" d="M 13 54.941406 L 43 54.941406 L 51 46.941406 L 51 10.941406 L 13 10.941406 Z "/>
<path style=" fill:#BBDEF9;" d="M 43 46.941406 L 51 46.941406 L 43 54.941406 Z "/>
<path style=" fill:#FFF7F0;" d="M 51 35.410156 L 51 14.570313 L 17.570313 54.820313 L 33.878906 54.820313 Z "/>
<path style=" fill:#FFF7F0;" d="M 13.398438 53.339844 L 48.5 10.941406 L 44 10.941406 L 12.5 49.539063 Z "/>
<path style=" fill:#FFF7F0;" d="M 13 43.359375 L 39.5 10.941406 L 38 10.941406 L 13 41.46875 Z "/>
<path style=" fill:#FFFFFF;" d="M 24.5 22.929688 L 25.738281 25.199219 L 28 26.441406 L 25.738281 27.679688 L 24.5 29.941406 L 23.261719 27.679688 L 21 26.441406 L 23.261719 25.199219 Z "/>
<path style=" fill:#F9E3AE;" d="M 42 5.941406 L 32 0.941406 L 22 5.941406 L 21 12.941406 L 43 12.941406 Z "/>
<path style=" fill:#FFFFFF;" d="M 39.421875 37.941406 L 40.269531 39.5 L 41.839844 40.359375 L 40.269531 41.210938 L 39.421875 42.78125 L 38.558594 41.210938 L 37 40.359375 L 38.558594 39.5 Z "/>
<path style=" fill:#FFFFFF;" d="M 24.648438 47.941406 L 25.230469 49 L 26.300781 49.589844 L 25.230469 50.171875 L 24.648438 51.230469 L 24.070313 50.171875 L 23 49.589844 L 24.070313 49 Z "/>
<path style=" fill:#8D6C9F;" d="M 34 5.941406 C 34 7.042969 33.105469 7.941406 32 7.941406 C 30.894531 7.941406 30 7.042969 30 5.941406 C 30 4.835938 30.894531 3.941406 32 3.941406 C 33.105469 3.941406 34 4.835938 34 5.941406 Z "/>
<path style=" fill:#8D6C9F;" d="M 55 4 L 40.578125 4 L 37.878906 2 C 34.375 -0.546875 29.625 -0.546875 26.121094 2 L 23.421875 4 L 9 4 C 7.34375 4 6 5.34375 6 7 L 6 59 C 6 60.65625 7.34375 62 9 62 L 55 62 C 56.65625 62 58 60.65625 58 59 L 58 7 C 58 5.34375 56.65625 4 55 4 Z M 27.289063 3.660156 C 30.097656 1.617188 33.902344 1.617188 36.710938 3.660156 L 37.179688 4 L 39.921875 6 L 40.761719 6.609375 C 41.527344 7.167969 41.988281 8.050781 42 9 L 42 11 C 42 11.550781 41.550781 12 41 12 L 23 12 C 22.449219 12 22 11.550781 22 11 L 22 9 C 22 8.039063 22.460938 7.132813 23.238281 6.570313 L 24.078125 6 L 26.820313 4 Z M 50 46 L 44 46 C 42.894531 46 42 46.894531 42 48 L 42 54 L 14 54 L 14 12 L 20.179688 12 C 20.601563 13.195313 21.730469 13.996094 23 14 L 41 14 C 42.269531 13.996094 43.398438 13.195313 43.820313 12 L 50 12 Z M 48.589844 48 L 44 52.589844 L 44 48 Z M 56 59 C 56 59.550781 55.550781 60 55 60 L 9 60 C 8.449219 60 8 59.550781 8 59 L 8 7 C 8 6.449219 8.449219 6 9 6 L 21 6 C 20.351563 6.867188 20 7.917969 20 9 L 20 10 L 14 10 C 12.894531 10 12 10.894531 12 12 L 12 54 C 12 55.105469 12.894531 56 14 56 L 42.171875 56 C 42.964844 56 43.726563 55.683594 44.289063 55.121094 L 51.121094 48.289063 C 51.683594 47.726563 52 46.964844 52 46.171875 L 52 12 C 52 10.894531 51.105469 10 50 10 L 44 10 L 44 9 C 44 7.917969 43.648438 6.867188 43 6 L 55 6 C 55.550781 6 56 6.449219 56 7 Z "/>
<path style=" fill:#8D6C9F;" d="M 17 16 C 16.449219 16 16 16.449219 16 17 L 16 19 C 16 19.550781 16.449219 20 17 20 C 17.550781 20 18 19.550781 18 19 L 18 17 C 18 16.449219 17.550781 16 17 16 Z "/>
<path style=" fill:#8D6C9F;" d="M 22 20 C 22.550781 20 23 19.550781 23 19 L 23 17 C 23 16.449219 22.550781 16 22 16 C 21.449219 16 21 16.449219 21 17 L 21 19 C 21 19.550781 21.449219 20 22 20 Z "/>
<path style=" fill:#8D6C9F;" d="M 27 20 C 27.550781 20 28 19.550781 28 19 L 28 17 C 28 16.449219 27.550781 16 27 16 C 26.449219 16 26 16.449219 26 17 L 26 19 C 26 19.550781 26.449219 20 27 20 Z "/>
<path style=" fill:#8D6C9F;" d="M 32 20 C 32.550781 20 33 19.550781 33 19 L 33 17 C 33 16.449219 32.550781 16 32 16 C 31.449219 16 31 16.449219 31 17 L 31 19 C 31 19.550781 31.449219 20 32 20 Z "/>
<path style=" fill:#8D6C9F;" d="M 37 20 C 37.550781 20 38 19.550781 38 19 L 38 17 C 38 16.449219 37.550781 16 37 16 C 36.449219 16 36 16.449219 36 17 L 36 19 C 36 19.550781 36.449219 20 37 20 Z "/>
<path style=" fill:#8D6C9F;" d="M 42 20 C 42.550781 20 43 19.550781 43 19 L 43 17 C 43 16.449219 42.550781 16 42 16 C 41.449219 16 41 16.449219 41 17 L 41 19 C 41 19.550781 41.449219 20 42 20 Z "/>
<path style=" fill:#8D6C9F;" d="M 47 20 C 47.550781 20 48 19.550781 48 19 L 48 17 C 48 16.449219 47.550781 16 47 16 C 46.449219 16 46 16.449219 46 17 L 46 19 C 46 19.550781 46.449219 20 47 20 Z "/>
<path style=" fill:#8D6C9F;" d="M 34 6 C 34 7.105469 33.105469 8 32 8 C 30.894531 8 30 7.105469 30 6 C 30 4.894531 30.894531 4 32 4 C 33.105469 4 34 4.894531 34 6 Z "/>
<path style=" fill:#8D6C9F;" d="M 29 40.589844 L 21.710938 33.300781 C 21.3125 32.960938 20.722656 32.984375 20.351563 33.351563 C 19.984375 33.722656 19.960938 34.3125 20.300781 34.710938 L 28.300781 42.710938 C 28.691406 43.097656 29.320313 43.097656 29.710938 42.710938 L 44.710938 27.710938 C 45.050781 27.3125 45.027344 26.722656 44.65625 26.351563 C 44.289063 25.984375 43.695313 25.960938 43.300781 26.300781 Z "/>
</g>
</svg>